<?xml version="1.0" standalone="no"?>
<!DOCTYPE svg PUBLIC "-//W3C//DTD SVG 20010904//EN"
 "http://www.w3.org/TR/2001/REC-SVG-20010904/DTD/svg10.dtd">
<svg version="1.0" xmlns="http://www.w3.org/2000/svg"
 width="512.000000pt" height="512.000000pt" viewBox="0 0 512.000000 512.000000"
 preserveAspectRatio="xMidYMid meet">

<g transform="translate(0.000000,512.000000) scale(0.100000,-0.100000)"
fill="#000000" stroke="none">
<path d="M2818 4356 c-3 -4 -46 -8 -95 -10 -94 -2 -175 -28 -220 -70 -65 -62
-83 -70 -152 -68 -71 3 -194 -19 -240 -43 -69 -35 -135 -130 -146 -208 -7 -46
34 -182 73 -246 l21 -34 -26 -31 c-39 -46 -112 -204 -125 -271 -6 -33 -12
-137 -11 -233 0 -141 3 -176 15 -189 14 -13 16 -10 22 34 10 71 27 160 42 228
7 33 16 82 20 108 8 63 62 198 106 267 92 142 155 170 387 170 308 -1 674 -18
751 -34 213 -46 330 -125 396 -271 25 -55 30 -82 52 -280 5 -44 27 -138 49
-210 22 -71 49 -161 59 -200 23 -91 44 -127 77 -136 22 -6 31 -2 47 18 21 27
50 25 50 -3 0 -13 7 -15 37 -9 21 4 41 11 44 17 4 6 12 45 19 87 6 42 15 86
20 97 5 12 14 91 21 175 13 173 3 319 -27 364 -9 14 -22 58 -29 97 -11 66 -40
139 -80 208 -8 14 -15 35 -15 48 0 46 -24 118 -56 167 -30 48 -76 95 -92 95
-7 0 -29 22 -102 97 -42 43 -123 96 -250 164 -56 29 -218 76 -305 88 -102 15
-328 26 -337 17z"/>
<path d="M2965 3289 c-81 -13 -91 -17 -103 -43 -9 -20 -7 -27 11 -44 18 -17
30 -20 65 -15 23 3 45 10 48 14 7 11 157 12 170 1 5 -5 33 -14 63 -21 30 -8
75 -26 100 -42 57 -35 94 -41 99 -16 10 49 -166 151 -288 167 -86 11 -97 11
-165 -1z"/>
<path d="M2196 3229 c-69 -10 -179 -62 -201 -95 -8 -13 -15 -33 -15 -45 0 -18
4 -20 27 -14 15 3 30 11 33 15 11 18 127 40 211 40 86 0 88 1 109 30 49 69 -6
92 -164 69z"/>
<path d="M1402 3064 c-1 -17 -16 -51 -33 -77 -16 -25 -32 -63 -35 -84 -5 -32
0 -26 36 46 29 59 40 92 37 115 l-4 31 -1 -31z"/>
<path d="M1900 2885 c0 -14 2 -25 4 -25 2 0 6 11 8 25 3 14 1 25 -3 25 -5 0
-9 -11 -9 -25z"/>
<path d="M2070 2880 c-59 -12 -132 -51 -126 -67 4 -8 6 -17 6 -19 0 -11 21 -2
38 16 10 11 32 23 49 26 29 6 31 4 26 -15 -8 -33 6 -88 25 -96 28 -11 176 -18
215 -11 28 5 38 13 43 32 5 20 11 24 28 20 33 -8 -39 50 -104 83 -59 30 -142
43 -200 31z m110 -40 c0 -5 -11 -10 -25 -10 -14 0 -25 5 -25 10 0 6 11 10 25
10 14 0 25 -4 25 -10z"/>
<path d="M1892 2805 c0 -16 2 -22 5 -12 2 9 2 23 0 30 -3 6 -5 -1 -5 -18z"/>
<path d="M2936 2823 c-37 -10 -98 -57 -107 -81 -13 -34 -3 -40 24 -15 25 23
60 43 76 43 6 0 11 -20 11 -45 0 -63 16 -69 154 -61 150 8 155 10 162 57 7 43
9 44 44 24 29 -17 40 -18 40 -6 0 4 -37 25 -82 46 -78 35 -90 38 -193 41 -60
1 -119 0 -129 -3z m125 -42 c-12 -8 -51 -4 -51 5 0 2 15 4 33 4 22 0 28 -3 18
-9z"/>
<path d="M427 2668 c-41 -11 -150 -110 -162 -148 -3 -11 -10 -20 -14 -20 -4 0
-13 -17 -20 -37 -7 -21 -33 -57 -58 -80 -26 -24 -41 -43 -35 -43 6 0 13 -36
17 -84 10 -113 30 -108 39 10 6 82 30 156 51 158 6 1 13 -37 16 -84 7 -101 29
-152 96 -216 82 -78 229 -112 358 -82 42 10 68 11 88 4 38 -14 34 -33 -10 -45
-137 -36 -225 -40 -318 -15 -33 10 -77 18 -97 20 -51 4 -121 54 -154 109 -39
67 -47 58 -42 -42 4 -81 4 -85 -9 -53 -12 33 -13 31 -8 -35 5 -54 15 -87 45
-147 45 -90 46 -97 36 -159 -5 -35 -12 -48 -28 -52 -21 -6 -50 15 -62 43 -3 8
-3 -1 0 -20 18 -105 123 -210 263 -262 31 -12 65 -27 76 -33 11 -7 38 -18 60
-25 22 -7 46 -17 53 -23 6 -5 12 -6 12 -1 0 5 4 4 8 -2 4 -6 32 -19 62 -29 30
-10 64 -24 75 -31 11 -8 25 -14 33 -14 7 0 42 -13 77 -30 35 -16 68 -30 73
-30 13 0 166 -82 173 -92 4 -6 16 -15 27 -21 59 -34 111 -75 125 -99 9 -16 21
-28 26 -28 10 0 -19 56 -49 95 -8 11 -44 40 -80 64 -36 25 -67 48 -70 52 -18
24 -171 87 -530 220 -162 59 -220 85 -220 99 0 5 19 22 43 37 23 16 47 33 52
39 11 12 44 24 115 44 154 43 213 72 276 138 40 42 94 151 109 219 3 18 10 35
15 38 12 7 342 -80 446 -118 23 -8 70 -18 105 -22 74 -8 103 7 114 60 6 30 6
30 -7 6 -7 -13 -25 -33 -40 -44 l-28 -21 -82 23 c-46 13 -128 38 -183 56 -55
18 -172 56 -260 85 -88 28 -189 66 -225 83 -64 31 -145 103 -202 179 -17 23
-38 38 -54 40 -15 2 -36 15 -47 30 -19 26 -20 29 -4 92 16 66 26 84 105 186
l42 55 -42 7 c-60 9 -126 8 -171 -4z"/>
<path d="M1443 2565 c-18 -9 -33 -21 -33 -28 0 -18 60 -82 100 -105 l35 -21
33 28 c29 23 34 33 34 75 1 47 -18 78 -33 54 -4 -6 -18 -8 -34 -4 -60 14 -71
15 -102 1z"/>
<path d="M3998 2514 c-28 -15 -54 -51 -44 -62 3 -3 16 4 29 16 12 11 34 25 50
31 15 6 27 15 27 21 0 14 -30 12 -62 -6z"/>
<path d="M1832 2490 c0 -14 2 -19 5 -12 2 6 2 18 0 25 -3 6 -5 1 -5 -13z"/>
<path d="M2331 2449 c-2 -75 41 -109 139 -109 68 0 100 13 120 50 10 18 6 18
-80 13 -85 -6 -92 -5 -129 20 -22 15 -41 37 -44 49 -2 13 -5 2 -6 -23z"/>
<path d="M1821 2343 c-2 -151 39 -300 113 -408 68 -99 234 -275 260 -275 3 0
15 -9 26 -20 11 -11 27 -20 36 -20 12 0 10 -5 -9 -20 -14 -11 -30 -20 -37 -20
-12 0 -127 55 -145 70 -5 4 -30 13 -55 20 -25 6 -54 14 -64 17 -18 5 -18 4 2
-22 51 -65 178 -195 190 -195 12 0 68 -34 82 -50 3 -3 24 -18 47 -33 50 -32
59 -58 44 -124 -5 -27 -15 -80 -20 -119 -6 -39 -17 -89 -25 -113 -46 -128 -58
-329 -31 -501 14 -90 29 -139 105 -340 18 -47 40 -109 49 -137 l16 -53 177 0
176 0 6 47 c3 27 11 104 16 173 6 69 15 141 20 160 82 326 106 396 189 559 24
47 53 104 64 126 11 22 28 49 37 60 10 11 23 37 29 57 7 21 17 40 22 44 5 3
21 26 35 52 84 157 125 205 172 205 18 0 32 2 32 4 0 3 -11 19 -25 37 -18 24
-43 39 -95 56 -64 21 -70 26 -70 51 0 20 6 30 23 34 12 4 81 36 152 72 138 68
238 133 374 244 63 52 91 69 115 69 l31 0 -37 22 c-21 12 -38 31 -40 42 -3 18
-11 22 -52 24 -27 2 -54 -2 -59 -7 -6 -6 -17 -11 -25 -11 -20 0 -147 -86 -227
-153 -69 -58 -191 -142 -330 -226 -38 -23 -77 -46 -85 -51 -35 -22 -130 -59
-190 -75 -86 -23 -289 -16 -405 13 -146 37 -192 59 -266 129 -95 90 -199 216
-241 293 -46 84 -87 215 -97 310 l-8 75 -2 -92z m1209 -990 c0 -9 -60 -59
-100 -84 -14 -9 -47 -37 -75 -63 l-50 -46 -79 2 -79 3 -40 58 c-22 32 -38 59
-36 61 2 2 56 9 119 15 63 6 162 22 220 35 127 29 120 28 120 19z"/>
<path d="M1380 2369 c-24 -11 -46 -22 -48 -23 -2 -2 6 -19 17 -37 30 -49 27
-75 -11 -95 -45 -23 -119 -85 -113 -94 2 -4 26 -13 52 -20 27 -7 53 -17 60
-22 6 -5 29 -8 49 -6 51 4 88 55 81 111 -4 32 -2 37 14 37 54 0 99 52 99 116
0 42 -10 55 -32 43 -19 -10 -47 -9 -103 5 -11 3 -40 -4 -65 -15z m45 -115 c28
-18 33 -49 9 -58 -11 -4 -19 4 -30 29 -21 52 -19 55 21 29z"/>
<path d="M2156 2212 c11 -11 26 -31 36 -44 9 -14 47 -40 85 -59 l68 -34 182 0
c160 0 207 5 192 19 -2 2 -78 10 -169 17 -91 6 -176 16 -190 22 l-25 9 25 10
c38 15 398 5 433 -12 15 -7 27 -17 27 -21 0 -13 63 12 93 38 16 12 25 23 20
24 -4 1 -84 0 -178 -1 -120 -1 -216 5 -325 19 -85 11 -186 23 -224 27 l-69 7
19 -21z"/>
<path d="M2235 2056 c11 -9 26 -20 33 -26 8 -7 12 -7 12 -1 0 6 -15 18 -32 26
-28 13 -30 14 -13 1z"/>
<path d="M3945 2060 c-16 -7 -17 -9 -3 -9 9 -1 20 4 23 9 7 11 7 11 -20 0z"/>
<path d="M2007 1059 c7 -7 15 -10 18 -7 3 3 -2 9 -12 12 -14 6 -15 5 -6 -5z"/>
<path d="M2040 1041 c0 -5 5 -13 10 -16 6 -3 10 -2 10 4 0 5 -4 13 -10 16 -5
3 -10 2 -10 -4z"/>
<path d="M2090 1006 c0 -2 7 -7 16 -10 8 -3 12 -2 9 4 -6 10 -25 14 -25 6z"/>
<path d="M1311 918 c-1 -11 40 -102 48 -108 4 -3 15 -25 25 -49 9 -24 24 -54
32 -65 12 -17 14 -18 14 -3 0 9 -4 17 -9 17 -4 0 -16 21 -26 48 -10 26 -22 52
-27 59 -5 6 -20 33 -33 60 -13 26 -24 45 -24 41z"/>
<path d="M3075 841 c6 -6 67 -13 135 -15 106 -4 113 -4 50 4 -188 21 -195 22
-185 11z"/>
<path d="M1431 634 c0 -11 3 -14 6 -6 3 7 2 16 -1 19 -3 4 -6 -2 -5 -13z"/>
<path d="M1441 594 c0 -11 3 -14 6 -6 3 7 2 16 -1 19 -3 4 -6 -2 -5 -13z"/>
<path d="M1451 544 c0 -11 3 -14 6 -6 3 7 2 16 -1 19 -3 4 -6 -2 -5 -13z"/>
<path d="M1471 474 c0 -11 3 -14 6 -6 3 7 2 16 -1 19 -3 4 -6 -2 -5 -13z"/>
<path d="M1482 420 c0 -14 2 -19 5 -12 2 6 2 18 0 25 -3 6 -5 1 -5 -13z"/>
<path d="M1492 360 c0 -19 2 -27 5 -17 2 9 2 25 0 35 -3 9 -5 1 -5 -18z"/>
<path d="M1505 261 c3 -35 5 -79 5 -97 0 -19 4 -34 8 -34 10 0 4 94 -9 155 -7
33 -8 28 -4 -24z"/>
<path d="M3393 65 c0 -38 2 -53 4 -32 2 20 2 52 0 70 -2 17 -4 1 -4 -38z"/>
<path d="M1533 45 c0 -27 2 -38 4 -22 2 15 2 37 0 50 -2 12 -4 0 -4 -28z"/>
</g>
</svg>
